<svg width="1854" height="1080" viewBox="0 0 1854 1080" fill="none" xmlns="http://www.w3.org/2000/svg">
<path fill-rule="evenodd" clip-rule="evenodd" d="M2129.59 1977.24C1966.6 2216.98 1723.41 2346.61 1476.83 2441.16C1237.66 2532.88 988.476 2591.56 779.347 2495.01C559.79 2393.64 381.242 2192.02 348.339 1920.14C316.938 1660.68 504.938 1414.66 617.316 1156.15C754.171 841.328 784.246 426.949 1065.35 270.732C1354.21 110.207 1643.33 299.336 1890.43 448.646C2125.55 590.721 2355.15 773.652 2402.91 1078.97C2449.59 1377.31 2313.89 1706.15 2129.59 1977.24Z" fill="#A0A3EC" fill-opacity="0.4"/>
<path fill-rule="evenodd" clip-rule="evenodd" d="M2225.38 1836.43C2079.67 2132.57 1822.95 2373.2 1526.08 2439.48C1236.12 2504.23 958.918 2376.53 771.466 2161.07C603.319 1967.81 560.513 1678.4 620.932 1399.12C672.992 1158.47 882.15 1014.95 1056.89 841.723C1284.04 616.53 1472.1 240.294 1758.04 271.834C2054.04 304.484 2158.38 674.342 2247.61 973.065C2330.75 1251.42 2363.32 1556.08 2225.38 1836.43Z" fill="#B8B7EE" fill-opacity="0.6"/>
<path fill-rule="evenodd" clip-rule="evenodd" d="M990.34 1304.77C1012.65 1174.55 1040.98 1045.23 1138.99 952.391C1257.1 840.522 1412.1 702.635 1573.94 751.985C1734.96 801.086 1733.37 1013.88 1809.45 1156.83C1865.18 1261.55 1956.62 1349.89 1953.98 1466.03C1950.97 1598.13 1902.79 1731.67 1794.51 1813.61C1681.02 1899.49 1527.38 1922.09 1382.02 1898.84C1235.51 1875.4 1091.77 1808.27 1012.85 1688.57C937.665 1574.54 967.905 1435.7 990.34 1304.77Z" fill="#9F9EDD" fill-opacity="0.8"/>
</svg>
