<svg width="528" height="236" viewBox="0 0 528 236" fill="none" xmlns="http://www.w3.org/2000/svg">
<path fill-rule="evenodd" clip-rule="evenodd" d="M-108.27 -204.615C-100.462 -255.093 -14.0315 -241.964 26.7812 -272.554C61.2274 -298.372 74.0946 -346.56 110.879 -368.872C149.381 -392.227 196.803 -413.704 240.086 -401.939C284.862 -389.768 305.268 -337.886 339.661 -306.688C366.492 -282.349 401.392 -267.296 421.671 -237.223C441.498 -207.823 442.592 -170.533 454.133 -136.941C466.574 -100.729 483.693 -67.337 492.821 -30.1291C505.232 20.4612 546.13 78.6649 517.775 122.479C489.551 166.09 417.715 143.033 369.146 160.971C331.083 175.029 301.26 205.302 262.367 216.809C220.753 229.122 175.451 244.318 134.452 230.41C93.399 216.483 63.7907 178.804 41.1027 141.748C20.6429 108.331 19.8306 67.477 11.2377 29.1653C4.17712 -2.31431 9.35924 -36.4687 -5.3022 -65.1493C-31.9218 -117.222 -117.24 -146.629 -108.27 -204.615Z" fill="#2836AE" fill-opacity="0.4"/>
</svg>
