<svg width="619" height="183" viewBox="0 0 619 183" fill="none" xmlns="http://www.w3.org/2000/svg">
<path fill-rule="evenodd" clip-rule="evenodd" d="M70.7991 174.902C26.9218 148.753 71.4721 73.5343 58.3982 24.2342C47.3637 -17.3755 7.50521 -47.3571 0.597053 -89.8217C-6.63356 -134.269 -8.78226 -186.282 18.3398 -222.007C46.3976 -258.963 102.147 -258.448 143.956 -278.649C176.574 -294.41 203.605 -321.129 239.085 -328.667C273.771 -336.036 308.756 -323.081 344.226 -321.198C382.461 -319.168 419.834 -322.532 457.752 -317.057C509.308 -309.613 578.594 -325.729 608.596 -283.026C638.458 -240.52 590.17 -182.552 588.608 -130.8C587.384 -90.2419 604.281 -51.2504 600.38 -10.8787C596.207 32.3182 593.327 80.0138 565.072 112.817C536.781 145.664 490.754 159.001 447.897 166.156C409.249 172.608 371.066 158.057 332.325 151.672C300.492 146.426 270.766 128.827 238.682 131.677C180.429 136.851 121.202 204.94 70.7991 174.902Z" fill="#2836AE" fill-opacity="0.4"/>
</svg>
