<svg width="1920" height="550" viewBox="0 0 1920 550" fill="none" xmlns="http://www.w3.org/2000/svg">
<path fill-rule="evenodd" clip-rule="evenodd" d="M842.046 1889.26C555.892 1842.86 335.634 1677.24 145.729 1493.72C-38.4717 1315.71 -196.966 1114.68 -197.84 884.339C-198.758 642.513 -91.4895 395.488 141.012 250.765C362.896 112.652 665.313 179.068 947.099 171.664C1290.26 162.648 1678.53 14.7817 1938.91 203.528C2206.47 397.48 2157.25 739.447 2126.35 1026.49C2096.96 1299.63 2028.2 1585.02 1771.68 1757.35C1521.01 1925.74 1165.63 1941.72 842.046 1889.26Z" fill="#A0A3EC" fill-opacity="0.4"/>
<path fill-rule="evenodd" clip-rule="evenodd" d="M926.078 1861.24C596.104 1854.34 269.526 1723.37 83.9889 1482.33C-97.2365 1246.9 -98.6477 941.697 17.3994 680.752C121.494 446.683 365.693 285.579 644.345 222.306C884.446 167.787 1102.92 296.694 1333.76 381.851C1633.85 492.553 2054.32 503.99 2146.58 776.467C2242.08 1058.53 1950.97 1309.4 1717.94 1516.51C1500.81 1709.5 1238.45 1867.78 926.078 1861.24Z" fill="#B8B7EE" fill-opacity="0.6"/>
<path fill-rule="evenodd" clip-rule="evenodd" d="M602.417 360.275C729.862 325.466 859.039 296.481 984.603 346.077C1135.9 405.839 1326.38 488.047 1350.05 655.578C1373.6 822.266 1180.06 910.753 1082.66 1040.12C1011.31 1134.89 969.888 1255.09 863.518 1301.77C742.518 1354.88 601.126 1367.65 481.113 1304.15C355.311 1237.58 269.898 1107.89 229.54 966.323C188.863 823.634 188.959 664.986 264.091 542.871C335.663 426.544 474.274 395.274 602.417 360.275Z" fill="#9F9EDD" fill-opacity="0.8"/>
</svg>
