<svg width="632" height="197" viewBox="0 0 632 197" fill="none" xmlns="http://www.w3.org/2000/svg">
<path fill-rule="evenodd" clip-rule="evenodd" d="M583.268 -291.716C624.699 -261.842 573.763 -190.792 582.49 -140.54C589.856 -98.1274 626.95 -64.786 630.13 -21.8809C633.46 23.0271 631.067 75.0302 600.935 108.255C569.763 142.625 514.271 137.253 470.859 153.734C436.992 166.591 407.735 190.853 371.734 195.27C336.537 199.588 302.814 183.633 267.644 178.666C229.73 173.311 192.206 173.405 154.91 164.646C104.199 152.737 33.772 162.753 7.60657 117.597C-18.4376 72.6508 34.719 19.1113 40.7858 -32.3072C45.5403 -72.6041 32.106 -112.92 39.51 -152.798C47.4323 -195.467 54.4586 -242.73 85.4645 -272.946C116.511 -303.202 163.525 -312.477 206.843 -315.869C245.906 -318.928 282.676 -301.104 320.713 -291.368C351.967 -283.367 380.046 -263.244 412.257 -263.287C470.739 -263.364 535.674 -326.033 583.268 -291.716Z" fill="#2836AE" fill-opacity="0.4"/>
</svg>
