<svg width="1729" height="1080" viewBox="0 0 1729 1080" fill="none" xmlns="http://www.w3.org/2000/svg">
<path fill-rule="evenodd" clip-rule="evenodd" d="M1535.94 2048.41C1249.86 2095.21 988.428 2008.03 750.105 1894.25C518.941 1783.89 304.847 1643.54 230.93 1425.38C153.327 1196.34 176.67 928.045 351.236 717.027C517.83 515.646 825.693 482.672 1090.57 386.239C1413.14 268.802 1734.42 5.37776 2041.23 101.751C2356.51 200.782 2418.34 540.695 2480.13 822.71C2538.92 1091.06 2564.26 1383.52 2375.68 1628.34C2191.4 1867.56 1859.46 1995.49 1535.94 2048.41Z" fill="#A0A3EC" fill-opacity="0.4"/>
<path fill-rule="evenodd" clip-rule="evenodd" d="M1704.03 2020.96C1388.92 2119.11 1037.66 2098.54 785.225 1928.83C538.66 1763.06 440.481 1474.08 467.732 1189.8C492.176 934.796 672.637 704.532 916.813 556.112C1127.21 428.225 1375.29 481.148 1621.23 488.657C1940.94 498.417 2343.3 375.848 2517.25 604.971C2697.32 842.154 2500.86 1172.43 2345.59 1442.78C2200.91 1694.7 2002.33 1928.04 1704.03 2020.96Z" fill="#B8B7EE" fill-opacity="0.6"/>
<path fill-rule="evenodd" clip-rule="evenodd" d="M1079.88 750.119C1189.7 676.67 1303 608.195 1437.82 615.386C1600.26 624.051 1806.98 641.572 1882.58 792.936C1957.81 943.537 1802.35 1088.86 1751.03 1242.45C1713.44 1354.96 1712.29 1482.09 1626.23 1560.12C1528.34 1648.88 1398.3 1705.85 1264.34 1683.71C1123.92 1660.5 1001.77 1564.61 918.578 1443.17C834.727 1320.76 784.478 1170.28 816.98 1030.63C847.942 897.606 969.469 823.971 1079.88 750.119Z" fill="#9F9EDD" fill-opacity="0.8"/>
</svg>
